# xmcd
#
# Track frame offsets: 
#        182
#        12662
#        25292
#        43150
#        55852
#        70227
#        82017
#        92685
#        103497
#        114952
#
# Disc length: 1736 seconds
#
# Revision: 2
# Processed by: cddbd v1.5.2PL0 Copyright (c) Steve Scherf et al.
# Submitted via: ExactAudioCopy v0.99pb4
#
DISCID=8706c60a
DTITLE=Howlin' Wolf - Chicago Blue
DYEAR=1995
DGENRE=Blues
TTITLE0=Streamline Woman
TTITLE1=Ain't Superstitious
TTITLE2=Goin' Down Slow
TTITLE3=My Mind is Rambling
TTITLE4=I Walked From Dallas
TTITLE5=Louise
TTITLE6=Somebody Walked In My House
TTITLE7=Hold On to Your Money
TTITLE8=My Country Sugar Mama
TTITLE9=Commit a Crime
EXTD=
EXTT0=
EXTT1=
EXTT2=
EXTT3=
EXTT4=
EXTT5=
EXTT6=
EXTT7=
EXTT8=
EXTT9=
PLAYORDER=
